:SAMPLES-PER-SECOND 30
:FRAME-RANGE 1-3549
:FULLY-SPECIFIED
:DEGREES
888
root  45.1298 39.3151 29.494 -163.247 -83.6121 167.678
RightUpLeg  -4.99447 0.918753 4.99632
RightLeg  14.1024 1.05353 -2.3534
RightFoot  -15.692 -0.217128 -2.92321
RightToes  -1.11029e-010 1.2921e-014 -6.02303e-014
Spine  8.39742 -0.956957 5.50517
Spine1  -1.98737 -0.458314 -0.39736
HEad  -8.68426 -20.8103 3.8842
LeftShoulder1  1.55219 -0.669497 -31.1445
LeftArm  4.75608 3.1768 -29.2149
LeftForeArm  22.4632 -35.3989 -6.64008
LeftHand  -0.423103 -1.85733 6.96194
RightShoulder  7.18285 8.8896 50.7654
RightArm  35.2326 -2.22345 18.5895
RightForeArm  9.82051 28.1528 5.55653
RightHand  -0.359728 5.47501 -4.15464
LeftUpLeg  -17.1688 9.84999 10.353
LeftLeg  28.1468 4.70771 3.05811
LeftFoot  -4.2359 0.527725 -8.08258
LeftToes  -1.9349e-011 -1.19469e-011 -2.02219e-012
889
root  44.6461 39.4991 30.1151 -168.919 -77.9677 173.221
RightUpLeg  -3.34844 1.3531 3.84864
RightLeg  11.9026 6.16507 -2.65137
RightFoot  -14.975 -0.172298 -2.23991
RightToes  -1.11029e-010 1.2921e-014 -6.02303e-014
Spine  8.09977 -0.642902 5.38269
Spine1  -1.33962 0.113761 -2.07271
HEad  -10.1025 -17.7611 3.57709
LeftShoulder1  1.48888 -0.438665 -31.7159
LeftArm  3.10108 5.17121 -29.2007
LeftForeArm  22.8755 -35.6737 -6.68924
LeftHand  -0.44519 -1.73047 7.43674
RightShoulder  7.17414 8.87447 50.7658
RightArm  32.1895 -2.34027 19.0602
RightForeArm  14.8308 33.4527 6.58127
RightHand  -0.365385 5.22761 -4.29912
LeftUpLeg  -13.3606 4.03649 11.2471
LeftLeg  17.5721 3.99194 1.73584
LeftFoot  -5.25867 0.393871 -6.81538
LeftToes  -1.9349e-011 -1.19469e-011 -2.02219e-012
890
root  44.0934 39.5117 30.7555 -172.629 -73.7514 176.622
RightUpLeg  -2.3538 2.51378 3.2548
RightLeg  11.5889 9.30082 -3.12964
RightFoot  -15.239 -0.14256 -1.16081
RightToes  -1.11029e-010 1.2921e-014 -6.02303e-014
Spine  7.61769 -0.696094 5.68115
Spine1  -0.477098 0.239705 -3.01462
HEad  -11.2886 -14.9648 3.28702
LeftShoulder1  1.48913 -0.395651 -32.139
LeftArm  2.77921 5.54895 -29.0516
LeftForeArm  22.8042 -35.0156 -6.51751
LeftHand  -0.469777 -1.59948 7.9747
RightShoulder  7.04031 8.6862 50.5917
RightArm  30.2464 -2.79298 18.9514
RightForeArm  18.8891 38.1722 7.64017
RightHand  -0.418465 4.96576 -4.98627
LeftUpLeg  -10.8261 2.42724 11.2394
LeftLeg  11.3716 -1.06835 0.80748
LeftFoot  -6.25255 0.418731 -8.56978
LeftToes  -1.9349e-011 -1.19469e-011 -2.02219e-012
891
root  43.5003 39.4518 31.3545 -174.98 -70.3081 178.451
RightUpLeg  -1.62827 6.48813 2.84796
RightLeg  12.4867 8.82015 -3.65348
RightFoot  -15.911 -0.10655 0.0275237
RightToes  -1.11029e-010 1.2921e-014 -6.02303e-014
Spine  7.483 -0.771471 5.17997
Spine1  -0.111759 0.154754 -3.12301
HEad  -11.4932 -12.4471 2.78968
LeftShoulder1  1.49108 -0.408491 -32.1207
LeftArm  3.20014 4.84441 -29.091
LeftForeArm  22.3276 -33.9806 -6.27471
LeftHand  -0.475156 -1.59396 8.07003
RightShoulder  6.8545 8.46423 50.1761
RightArm  29.2893 -3.4524 18.5319
RightForeArm  21.5442 41.2655 8.41816
RightHand  -0.483857 4.61466 -5.89711
LeftUpLeg  -9.01348 6.15766 10.6165
LeftLeg  8.80658 -8.48413 -0.526129
LeftFoot  -4.28886 0.736185 -11.5011
LeftToes  -1.9349e-011 -1.19469e-011 -2.02219e-012
892
root  42.9019 39.3517 31.9115 -175.44 -67.9878 178.509
RightUpLeg  -1.48119 14.6511 1.93416
RightLeg  14.5025 3.22372 -3.64573
RightFoot  -16.846 -0.0395594 1.5492
RightToes  -1.11029e-010 1.2921e-014 -6.02303e-014
Spine  7.24768 -1.00369 3.13693
Spine1  -0.0156839 -0.407602 -2.073
HEad  -11.2456 -10.3805 2.90028
LeftShoulder1  1.49443 -0.429188 -31.9483
LeftArm  3.54191 3.36958 -29.1441
LeftForeArm  21.9568 -33.469 -6.16491
LeftHand  -0.455443 -1.64557 7.68929
RightShoulder  6.61511 8.11664 49.8765
RightArm  28.7625 -3.75697 17.8525
RightForeArm  23.4074 42.5218 8.70419
RightHand  -0.549317 4.56804 -6.6826
LeftUpLeg  -8.69074 6.51681 9.9186
LeftLeg  11.7792 -6.54679 -0.912745
LeftFoot  -6.98983 0.51566 -12.4348
LeftToes  -1.9349e-011 -1.19469e-011 -2.02219e-012
893
root  42.3411 39.2297 32.4144 -174.546 -66.4169 176.872
RightUpLeg  -1.81406 24.4917 0.0199722
RightLeg  17.6671 -4.88131 -2.68345
RightFoot  -17.9958 0.0631664 3.18276
RightToes  -1.11029e-010 1.2921e-014 -6.02303e-014
Spine  7.81986 -1.18908 -0.0207962
Spine1  -0.586084 -1.07032 -0.723805
HEad  -10.566 -9.18804 3.49134
LeftShoulder1  1.50025 -0.491936 -31.497
LeftArm  4.22538 0.727224 -29.4217
LeftForeArm  21.8324 -32.7727 -5.99569
LeftHand  -0.456413 -1.63915 7.71186
RightShoulder  6.22136 7.4067 49.963
RightArm  28.1175 -3.6281 16.9842
RightForeArm  24.2443 42.096 8.50751
RightHand  -0.594248 4.63511 -7.16011
LeftUpLeg  -8.31116 8.50936 8.53562
LeftLeg  14.3206 -7.10512 -1.80185
LeftFoot  -8.33015 0.347185 -11.2869
LeftToes  -1.9349e-011 -1.19469e-011 -2.02219e-012
894
root  41.783 39.0941 32.8979 -173.19 -64.4006 174.92
RightUpLeg  -3.38862 23.8756 -2.53729
RightLeg  21.6826 -3.7289 -1.84628
RightFoot  -18.9833 0.217115 5.17515
RightToes  -1.11029e-010 1.2921e-014 -6.02303e-014
Spine  7.84653 -1.09943 -2.35725
Spine1  -0.607271 -1.17745 -0.901635
HEad  -10.1025 -8.39071 3.93465
LeftShoulder1  1.53823 -0.644404 -31.0319
LeftArm  4.85511 -2.93005 -29.5725
LeftForeArm  21.2968 -32.4457 -5.94471
LeftHand  -0.444139 -1.47626 7.6743
RightShoulder  6.01981 7.01994 50.1217
RightArm  26.5657 -3.79272 16.094
RightForeArm  23.9411 41.2178 8.24464
RightHand  -0.651412 4.69406 -7.77687
LeftUpLeg  -7.81327 10.1005 6.8251
LeftLeg  16.4117 -6.87242 -2.14902
LeftFoot  -10.2845 0.163654 -11.0545
LeftToes  -1.9349e-011 -1.19469e-011 -2.02219e-012
895
root  41.25 38.9943 33.4012 -173.11 -61.6223 174.642
RightUpLeg  -6.58258 19.6345 -4.89618
RightLeg  27.2467 -0.764449 -0.652362
RightFoot  -18.3061 0.409406 8.75629
RightToes  -1.11029e-010 1.2921e-014 -6.02303e-014
Spine  8.11438 -0.842694 -2.89422
Spine1  -1.09241 -0.842367 -2.13049
HEad  -9.63172 -7.49288 3.82206
LeftShoulder1  1.55595 -0.688095 -31.0688
LeftArm  5.48044 -6.9873 -29.1985
LeftForeArm  20.8983 -32.2692 -5.92367
LeftHand  -0.435091 -1.34469 7.65759
RightShoulder  5.9125 6.86121 49.9843
RightArm  24.6735 -3.84651 15.5265
RightForeArm  22.4527 40.5504 8.13196
RightHand  -0.656343 4.4154 -8.03929
LeftUpLeg  -7.44971 11.3218 5.55471
LeftLeg  18.1772 -5.43404 -2.0014
LeftFoot  -12.1182 0.00129702 -10.4678
LeftToes  -1.9349e-011 -1.19469e-011 -2.02219e-012
896
root  40.7251 38.947 33.8267 -173.578 -58.9263 175.057
RightUpLeg  -10.5267 14.5352 -6.35971
RightLeg  34.0163 0.435866 0.071517
RightFoot  -15.6304 0.387367 13.1356
RightToes  -1.11029e-010 1.2921e-014 -6.02303e-014
Spine  8.14098 -0.554223 -3.39617
Spine1  -1.16604 -0.574151 -2.62183
HEad  -9.37434 -6.40237 3.15354
LeftShoulder1  1.5555 -0.717731 -30.7958
LeftArm  5.34364 -10.7794 -29.5982
LeftForeArm  20.9592 -32.083 -5.87389
LeftHand  -0.434697 -1.33731 7.65859
RightShoulder  5.87267 6.89166 49.505
RightArm  22.9921 -3.44508 15.1583
RightForeArm  21.3492 40.1877 8.09093
RightHand  -0.708809 4.2807 -8.76965
LeftUpLeg  -6.79728 12.1967 4.72332
LeftLeg  19.078 -3.84941 -1.69444
LeftFoot  -13.6381 -0.124906 -10.2757
LeftToes  -1.9349e-011 -1.19469e-011 -2.02219e-012
897
root  40.2256 38.9834 34.1641 -174.321 -56.4651 175.852
RightUpLeg  -14.6045 9.15736 -6.51636
RightLeg  40.2767 -0.996503 -1.1794
RightFoot  -10.8539 -0.140477 15.5052
RightToes  -1.11029e-010 1.2921e-014 -6.02303e-014
Spine  8.17193 -0.444892 -3.92831
Spine1  -1.24833 -0.544794 -2.54088
HEad  -9.14554 -4.9467 2.64358
LeftShoulder1  1.56829 -0.83153 -30.1175
LeftArm  4.4949 -13.6602 -30.17
LeftForeArm  21.2186 -32.6841 -6.00895
LeftHand  -0.435002 -1.22725 7.7825
RightShoulder  6.0717 7.3165 49.1716
RightArm  21.3697 -2.75223 14.5928
RightForeArm  21.2999 40.3178 8.13458
RightHand  -0.738198 4.27501 -9.12542
LeftUpLeg  -5.73092 13.0167 4.3596
LeftLeg  18.8866 -2.07764 -1.47706
LeftFoot  -14.4514 -0.18058 -9.81571
LeftToes  -1.9349e-011 -1.19469e-011 -2.02219e-012
898
root  39.7251 39.0555 34.415 -175.021 -54.6261 176.748
RightUpLeg  -17.8887 3.69564 -5.40964
RightLeg  44.0259 -3.87408 -4.29775
RightFoot  -7.22825 -0.511011 12.8058
RightToes  -1.11029e-010 1.2921e-014 -6.02303e-014
Spine  8.18665 -0.638285 -4.57167
Spine1  -1.41181 -0.891982 -1.87171
HEad  -8.76102 -3.48703 2.2727
LeftShoulder1  1.59098 -0.957103 -29.6017
LeftArm  4.07346 -16.4029 -30.3854
LeftForeArm  21.4156 -33.2562 -6.14221
LeftHand  -0.441518 -1.03087 8.1224
RightShoulder  6.19887 7.63613 48.7587
RightArm  19.6074 -1.6563 14.3841
RightForeArm  22.2029 40.5519 8.14876
RightHand  -0.782833 4.32424 -9.61216
LeftUpLeg  -4.49287 12.9973 4.26132
LeftLeg  18 -0.279168 -1.45739
LeftFoot  -14.9251 -0.205033 -9.39031
LeftToes  -1.9349e-011 -1.19469e-011 -2.02219e-012
